<svg width="1000" height="1000" viewBox="0 0 1000 1000" fill="none" xmlns="http://www.w3.org/2000/svg">
<g clip-path="url(#clip0_2334_2)">
<rect width="1000" height="1000" rx="175" fill="url(#paint0_linear_2334_2)"/>
<g filter="url(#filter0_f_2334_2)">
<path fill-rule="evenodd" clip-rule="evenodd" d="M31.1854 568.597L22.6556 577.121C22.1682 577.608 20.0154 584.224 19 587.472V595.387L20.8278 600.258L27.5298 606.347L35.4503 610L346.362 607.565L349.408 606.347L501.115 469.96L596.77 561.899H610.174L868.504 309.218H870.941L922.729 396.286L925.775 398.113L933.086 399.331L937.961 398.113L944.053 393.242L947.099 387.762L980 169.786L977.563 164.306L972.689 159.435L967.815 157H965.987H962.331L959.285 157.609L771.021 208.754L766.756 212.407L763.71 217.887L761.882 224.585V228.847L762.492 230.673L763.101 231.282L765.538 235.544L766.756 237.371L840.478 279.383L604.081 511.363H602.254L510.254 421.859L505.989 420.641H499.287L494.413 421.25L335.395 564.944L334.785 565.552L31.7946 568.597H31.1854ZM865.458 256.855L821.59 230.673V229.456L944.662 197.185L945.272 197.794V198.403L925.166 334.181H922.12L891.656 282.427L890.438 281.21V278.5V273.903L889.219 270.859L888 267.815L885 263L879 258.5L875.206 256.855H865.458Z" fill="#00ACF4"/>
<path fill-rule="evenodd" clip-rule="evenodd" d="M31.1854 568.597L22.6556 577.121C22.1682 577.608 20.0154 584.224 19 587.472V595.387L20.8278 600.258L27.5298 606.347L35.4503 610L346.362 607.565L349.408 606.347L501.115 469.96L596.77 561.899H610.174L868.504 309.218H870.941L922.729 396.286L925.775 398.113L933.086 399.331L937.961 398.113L944.053 393.242L947.099 387.762L980 169.786L977.563 164.306L972.689 159.435L967.815 157H965.987H962.331L959.285 157.609L771.021 208.754L766.756 212.407L763.71 217.887L761.882 224.585V228.847L762.492 230.673L763.101 231.282L765.538 235.544L766.756 237.371L840.478 279.383L604.081 511.363H602.254L510.254 421.859L505.989 420.641H499.287L494.413 421.25L335.395 564.944L334.785 565.552L31.7946 568.597H31.1854ZM865.458 256.855L821.59 230.673V229.456L944.662 197.185L945.272 197.794V198.403L925.166 334.181H922.12L891.656 282.427L890.438 281.21V278.5V273.903L889.219 270.859L888 267.815L885 263L879 258.5L875.206 256.855H865.458Z" stroke="#00ACF4" stroke-width="1.01132"/>
</g>
<path d="M467.184 952H343.464C316.756 952 299.082 947.68 290.441 939.039C282.586 930.398 278.658 912.331 278.658 884.838V147.23C278.658 133.091 282.586 121.7 290.441 113.06C298.296 104.419 308.508 100.099 321.077 100.099H467.184V952ZM514.316 100.099H663.958C738.583 100.099 788.071 117.773 812.422 153.121C837.559 187.685 850.128 257.596 850.128 362.857C850.128 432.768 842.272 487.362 826.562 526.638C811.637 565.915 791.606 592.23 766.469 605.584C741.332 618.152 707.162 624.436 663.958 624.436H514.316V512.499H601.509C621.933 512.499 634.894 509.75 640.392 504.251C646.677 498.752 649.819 490.112 649.819 478.329V247.384C649.819 234.816 646.677 225.782 640.392 220.284C634.894 214.785 621.933 212.036 601.509 212.036H514.316V100.099Z" fill="white"/>
</g>
<defs>
<filter id="filter0_f_2334_2" x="10.4944" y="148.494" width="978.028" height="470.012" filterUnits="userSpaceOnUse" color-interpolation-filters="sRGB">
<feFlood flood-opacity="0" result="BackgroundImageFix"/>
<feBlend mode="normal" in="SourceGraphic" in2="BackgroundImageFix" result="shape"/>
<feGaussianBlur stdDeviation="4" result="effect1_foregroundBlur_2334_2"/>
</filter>
<linearGradient id="paint0_linear_2334_2" x1="500" y1="0" x2="500" y2="1000" gradientUnits="userSpaceOnUse">
<stop stop-color="#3D79A9"/>
<stop offset="0.0515528" stop-color="#0E0653"/>
<stop offset="0.987643" stop-color="#263F7E"/>
</linearGradient>
<clipPath id="clip0_2334_2">
<rect width="1000" height="1000" rx="175" fill="white"/>
</clipPath>
</defs>
</svg>
